<svg id="Layer" enable-background="new 0 0 64 64" height="512" viewBox="0 0 64 64" width="512" xmlns="http://www.w3.org/2000/svg"><path d="m32 10c12.15 0 22 9.85 22 22s-9.85 22-22 22-22-9.85-22-22 9.85-22 22-22zm6.25 23.56c1-.8 1-2.32 0-3.12l-8-6c-1.31-1.05-3.25-.11-3.25 1.56v12c0 1.67 1.94 2.61 3.25 1.56z" fill="#4dd0e1"/><path d="m38.25 30.44c1 .8 1 2.32 0 3.12l-8 6c-1.31 1.05-3.25.11-3.25-1.56v-12c0-1.67 1.94-2.61 3.25-1.56z" fill="#ff7043"/><g fill="#012e52"><path d="m32 56c13.233 0 24-10.766 24-24s-10.767-24-24-24-24 10.766-24 24 10.767 24 24 24zm0-44c11.028 0 20 8.972 20 20s-8.972 20-20 20-20-8.972-20-20 8.972-20 20-20z"/><path d="m27.271 41.604c.563.271 1.162.402 1.753.402.877 0 1.734-.29 2.427-.846l8.05-6.039c.952-.763 1.499-1.9 1.499-3.121s-.547-2.358-1.5-3.122c-.017-.013-.033-.026-.05-.039l-7.949-5.96c-1.21-.97-2.832-1.157-4.23-.483-1.401.672-2.271 2.053-2.271 3.604v12c0 1.551.87 2.932 2.271 3.604zm1.779-15.564 7.947 5.96-7.997 6z"/></g></svg>