<svg id="Layer" enable-background="new 0 0 64 64" height="512" viewBox="0 0 64 64" width="512" xmlns="http://www.w3.org/2000/svg"><path d="m38 26v12c0 1.67-1.94 2.61-3.25 1.56l-8-6c-.5-.4-.75-.98-.75-1.56s.25-1.16.75-1.56l8-6c1.31-1.05 3.25-.11 3.25 1.56z" fill="#ff7043"/><path d="m26 32c0 .58.25 1.16.75 1.56l8 6c1.31 1.05 3.25.11 3.25-1.56v-12c0-1.67-1.94-2.61-3.25-1.56l-8 6c-.5.4-.75.98-.75 1.56zm6-22c12.15 0 22 9.85 22 22s-9.85 22-22 22-22-9.85-22-22 9.85-22 22-22z" fill="#4dd0e1"/><g fill="#012e52"><path d="m32 8c-13.233 0-24 10.767-24 24s10.767 24 24 24 24-10.767 24-24-10.767-24-24-24zm0 44c-11.028 0-20-8.972-20-20s8.972-20 20-20 20 8.972 20 20-8.972 20-20 20z"/><path d="m37.729 22.396c-1.401-.672-3.021-.486-4.179.445l-5.55 4.163v-3.004c0-1.104-.896-2-2-2s-2 .896-2 2v16c0 1.104.896 2 2 2s2-.896 2-2v-3.004l5.498 4.123c.729.584 1.604.885 2.493.885.587 0 1.18-.132 1.737-.399 1.402-.672 2.272-2.054 2.272-3.605v-12c0-1.551-.87-2.933-2.271-3.604zm-1.779 15.564-7.946-5.96 7.996-6z"/></g></svg>